<svg width="124" height="35" viewBox="0 0 124 35" fill="none" xmlns="http://www.w3.org/2000/svg">
<path fill-rule="evenodd" clip-rule="evenodd" d="M14.911 7.44667C14.911 11.5594 11.5731 14.8933 7.45551 14.8933C3.33795 14.8933 7.44853e-10 11.5594 7.44853e-10 7.44667C7.44853e-10 3.33399 3.33795 0 7.45551 0C11.5731 0 14.911 3.33399 14.911 7.44667ZM13.4836 20.4442C14.3348 21.6124 14.8274 23.0027 14.9013 24.4457C14.9074 24.5823 14.9115 24.6986 14.9115 24.8271C14.9118 27.26 14.0287 29.6105 12.426 31.4427C10.8234 33.2749 8.60989 34.4644 6.19605 34.7907C6.63637 33.998 6.9668 33.1492 7.17828 32.2677C5.73274 32.2139 4.33407 31.7413 3.15275 30.9075C1.97142 30.0736 1.05847 28.9146 0.525174 27.5715C-0.00812486 26.2285 -0.138738 24.7595 0.149254 23.3436C0.437246 21.9277 1.1314 20.626 2.14712 19.5973C3.16283 18.5686 4.45623 17.8572 5.86967 17.5499C7.2831 17.2425 8.75552 17.3525 10.1075 17.8665C11.4594 18.3804 12.6324 19.276 13.4836 20.4442ZM22.4219 6.01848H30.6187L33.743 17.9972L37.3983 5.93894H44.3208L48.0231 18.0849L51.2393 6.01848H59.3013L51.9499 30.0045H44.717L40.8391 17.6443L36.8755 30.0106H29.6937L22.4219 6.01848ZM70.5054 6.02213H62.0841V29.8388H70.5054V22.4452C70.5054 19.6876 71.0936 17.6663 72.2677 16.3753C72.4159 16.2124 72.5724 16.0332 72.7374 15.8445C73.8796 14.5374 75.423 12.7712 77.3483 12.7712H78.0528L78.0406 5.63256C76.0421 5.54553 74.4554 5.98541 73.2806 6.9522C72.0514 7.99713 71.0984 9.32798 70.5054 10.8275V6.02213ZM91.704 30.3231C89.1637 30.3231 87.1856 29.7214 85.7698 28.518C84.354 27.3147 83.6447 25.29 83.642 22.444V12.7619H80.8219V6.02097H83.642V0H92.0593V6.02097H97.6096V12.7517H92.0593V20.8164C92.0593 21.669 92.2499 22.2775 92.631 22.6419C93.0129 23.0111 93.5847 23.1926 94.3505 23.1926C94.9026 23.1949 95.4523 23.1208 95.9841 22.9723C96.5134 22.8263 97.0292 22.6353 97.5258 22.4012V28.9586C96.7025 29.3919 95.8296 29.724 94.9263 29.9478C93.8722 30.2076 92.7896 30.3337 91.704 30.3231ZM108.795 6.02753H100.38V29.8442H108.795V16.9497C108.793 15.6348 109.12 14.6375 109.773 13.9576C110.095 13.6222 110.484 13.3581 110.915 13.1824C111.346 13.0067 111.809 12.9234 112.275 12.9378C112.724 12.9222 113.171 13.0054 113.584 13.1817C113.997 13.3579 114.366 13.6228 114.666 13.9576C115.276 14.6334 115.581 15.6308 115.581 16.9497V29.8442H124V14.2656C123.999 11.5434 123.281 9.40447 121.848 7.84892C120.414 6.29336 118.413 5.51559 115.844 5.51559C115.063 5.50683 114.285 5.61828 113.539 5.84601C112.868 6.05389 112.224 6.34222 111.623 6.70469C111.052 7.04644 110.526 7.4575 110.057 7.92846C109.605 8.38416 109.183 8.86929 108.795 9.38068V6.02753Z" fill="#5A2CDA"/>
</svg>
