<svg width="22" height="22" viewBox="0 0 22 22" fill="none" xmlns="http://www.w3.org/2000/svg">
<circle cx="11" cy="11" r="11" fill="white"/>
<g clip-path="url(#clip0)">
<path d="M4.60823 8.81357C4.60823 8.81357 3.97496 8.81357 3.40608 9.37171V7.12842H2V12.9996H3.42755V12.5381C3.42755 12.5381 3.76029 13.1392 4.60823 13.1392C4.60823 13.1392 6.59392 13.064 6.59392 10.9495C6.59392 10.9603 6.51878 8.81357 4.60823 8.81357ZM4.29696 11.9048C3.79249 11.9048 3.39535 11.4969 3.39535 11.0032C3.39535 10.4987 3.80322 10.1016 4.29696 10.1016C4.80143 10.1016 5.19857 10.5095 5.19857 11.0032C5.19857 11.5077 4.80143 11.9048 4.29696 11.9048Z" fill="#292C32"/>
<path d="M7.04468 7V8.36315C7.04468 8.36315 7.68868 8.33095 7.68868 9.53309V13.0107H9.05183V9.20036C9.0411 9.20036 9.1055 7 7.04468 7Z" fill="#292C32"/>
<path d="M12.3687 8.82471C12.3687 8.82471 10.0396 8.82471 10.0396 11.0036C10.0396 11.0036 9.96443 13.1503 12.3687 13.1503C12.3687 13.1503 14.7516 13.1503 14.7516 11.0036C14.7516 11.0036 14.8267 8.82471 12.3687 8.82471ZM12.3687 11.9052C11.8643 11.9052 11.4671 11.4973 11.4671 11.0036C11.4671 10.4991 11.875 10.102 12.3687 10.102C12.8732 10.102 13.2703 10.5099 13.2703 11.0036C13.2703 11.5081 12.8625 11.9052 12.3687 11.9052Z" fill="#292C32"/>
<path d="M18.6368 8.97492V9.36133C18.6368 9.36133 18.229 8.82465 17.4562 8.82465C17.4562 8.82465 15.4597 8.73879 15.4597 10.9821C15.4597 10.9821 15.4383 13.0751 17.4025 13.0751C17.4025 13.0751 18.1968 13.1073 18.6368 12.5384V12.8712C18.6368 12.8712 18.7334 13.9016 17.7352 13.9016H17.3918V15.1467H17.9392C17.9392 15.1467 20 15.1681 20 12.9463V8.97492H18.6368V8.97492ZM17.7889 11.9052C17.2844 11.9052 16.8873 11.4973 16.8873 11.0035C16.8873 10.4991 17.2952 10.1019 17.7889 10.1019C18.2934 10.1019 18.6905 10.5098 18.6905 11.0035C18.7012 11.508 18.2934 11.9052 17.7889 11.9052Z" fill="#292C32"/>
</g>
<defs>
<clipPath id="clip0">
<rect width="18" height="8.14669" fill="white" transform="translate(2 7)"/>
</clipPath>
</defs>
</svg>
