<svg width="64" height="47" viewBox="0 0 64 47" fill="none" xmlns="http://www.w3.org/2000/svg">
<circle cx="3.5" cy="10.5" r="2.5" stroke="white" stroke-width="2"/>
<circle cx="57.5" cy="8.5" r="2.5" stroke="white" stroke-width="2"/>
<circle cx="5.5" cy="22.5" r="2.5" stroke="white" stroke-width="2"/>
<circle cx="57.5" cy="23.5" r="2.5" stroke="white" stroke-width="2"/>
<circle cx="4.5" cy="37.5" r="2.5" stroke="white" stroke-width="2"/>
<circle cx="60.5" cy="34.5" r="2.5" stroke="white" stroke-width="2"/>
<path d="M6 11H10L11.5 14.5H18M7.5 22.5H18M6.5 36L10.5 32.5H17.5M18 11V36.5H45.5V11" stroke="white" stroke-width="2"/>
<path d="M25 11H46.5M45.5 16H51.5L56.5 10M45.5 24H55.5M45.5 32.5H52L54 35H58.5M23 22H31M23 28H31" stroke="white" stroke-width="2"/>
<rect x="34" y="21" width="2" height="2" fill="white"/>
<rect x="38" y="21" width="2" height="2" fill="white"/>
<rect x="38" y="27" width="2" height="2" fill="white"/>
<rect x="34" y="27" width="2" height="2" fill="white"/>
</svg>
