<svg width="64" height="47" viewBox="0 0 64 47" fill="none" xmlns="http://www.w3.org/2000/svg">
<path d="M17.5 12.5V24L13 31.5L17.5 34.5V45.5H29.5M47.5 31.5V45.5" stroke="white" stroke-width="2"/>
<circle cx="23.5" cy="25" r="1.5" fill="white"/>
<path d="M39 8C37.1667 8 33.5 9.1 33.5 13.5C33.5 17.9 37 19.5 39 19.5C41 19.5 44.5 17.9 44.5 13.5M29.5 5L33.5 2C34.6667 3.33333 37.3 5 38.5 1H43C42.8333 3 45.5 6 48.5 4.5L50.5 8C48.8333 9.16667 46.6 11.9 51 13.5V17.5C49 17.6667 45.6 19.1 48 23.5L45 25.5C43.6667 23.8333 40.6 21.7 39 26.5L35.5 25.5C35.5 23.3333 34.4 19.7 30 22.5L28 19.5C29.5 17.8333 31.2 14.3 26 13.5L27 9.5C29 9.66667 32.3 9 29.5 5Z" stroke="white" stroke-width="2"/>
</svg>
